<?xml version="1.0" encoding="utf-8"?>
<!-- Generator: Adobe Illustrator 27.5.0, SVG Export Plug-In . SVG Version: 6.00 Build 0)  -->
<svg version="1.1" xmlns="http://www.w3.org/2000/svg" xmlns:xlink="http://www.w3.org/1999/xlink" x="0px" y="0px"
	 viewBox="0 0 750 500" style="enable-background:new 0 0 750 500;" xml:space="preserve">
<g id="BACKGROUND">
	<rect id="XMLID_480_" x="125" style="fill:#FFFFFF;" width="500" height="500"/>
</g>
<g id="OBJECT">
	<g id="XMLID_546_">
		<g id="XMLID_539_">
			<polygon id="XMLID_418_" style="fill:#E2DEFF;" points="475.693,201.418 480.932,278.253 652.647,304.447 654.393,217.134 			"/>
			<polygon id="XMLID_424_" style="fill:#FFFFFF;" points="488.513,236.524 640.698,254.316 642.214,229.189 488.651,214.863 			"/>
			<polygon id="XMLID_493_" style="fill:#FFFFFF;" points="490.482,268.515 642.667,286.308 644.183,261.18 490.62,246.855 			"/>
			<polygon id="XMLID_492_" style="fill:#E2DEFF;" points="475.693,201.418 654.393,217.134 697.665,212.574 524.911,197.317 			"/>
			<polygon id="XMLID_489_" style="fill:#E2DEFF;" points="686.99,293.97 697.665,212.574 654.393,217.134 652.647,304.447 			"/>
			<path id="XMLID_494_" style="fill:#E2DEFF;" d="M614.699,209.025l-0.8-16.535l11.735-0.533l0.267-16.802
				c0,0-14.135-5.867-14.935-18.402c-0.8-12.535,2.934-18.402,2.934-18.402l45.872,1.867c0,0,3.734,33.071-21.603,35.471
				l-2.134,16.002l12.535,2.667l-0.533,17.335L614.699,209.025z"/>
			<g id="XMLID_505_">
				<path id="XMLID_499_" style="fill:#E2DEFF;" d="M526.901,173.17c0,0-12.789-2.984-10.87-10.444
					c1.918-7.46,3.197-6.821,0.213-10.657c-2.984-3.837-1.918-9.378,1.279-11.297c3.197-1.918-7.46-10.444-1.066-15.347
					c6.394-4.902-1.705-13.428,6.607-15.346c8.313-1.918,5.329,15.986,3.837,18.757c-1.492,2.771,6.394,6.181,5.542,10.444
					c-0.852,4.263-7.673,6.181-4.476,9.805c3.197,3.623,9.592,2.771,6.181,9.592c-3.41,6.821-0.426,7.034-0.639,10.231
					C533.296,172.105,530.738,175.515,526.901,173.17z"/>
				<path id="XMLID_496_" style="fill:#E2DEFF;" d="M528.455,166.992c0,0-0.583-10.041,4.705-11.793
					c5.288-1.751-1.79-8.985,1.876-11.981c3.666-2.996,7.545,1.922,8.849-2.311c1.304-4.233,1.68-9.891,6.011-7.5
					c4.331,2.391,4.483,8.652-0.737,12.795c-5.22,4.143-6.744,3.985-4.57,8.051c2.174,4.066-1.945,5.327-4.917,8.141
					c-2.972,2.815,1.737,8.072-2.185,11.505c-3.922,3.434-2.82,4.814-6.834,3.638C526.639,176.362,528.455,166.992,528.455,166.992z
					"/>
				<path id="XMLID_507_" style="fill:#E2DEFF;" d="M503.946,128.839c0,0,5.433,3.952,3.211,8.397
					c-2.223,4.445,3.458,5.68,4.199,10.62c0.741,4.939-2.964,3.952-1.482,7.162c1.482,3.211,11.361,1.976,13.83,9.138
					c2.47,7.162,1.976,8.397,1.976,8.397s-16.3,5.186-21.734-4.198c-5.433-9.385,0.494-12.349-4.692-15.312
					c-5.186-2.964,1.482-8.891,0.988-10.867c-0.494-1.976-7.409-4.939-4.445-8.15c2.964-3.211-1.482-6.668,0.494-8.644
					S500.488,121.183,503.946,128.839z"/>
				<path id="XMLID_522_" style="fill:#E2DEFF;" d="M502.546,170.824c-0.663,16.597,6.022,24.445,13.83,27.528v5.072h15.477v-4.13
					c2.002-0.48,3.71-1.158,4.939-1.917c7.903-4.883,8.232-26.553,8.232-26.553H502.546z"/>
			</g>
			<ellipse id="XMLID_497_" style="fill:#E2DEFF;" cx="579.495" cy="188.223" rx="13.246" ry="12.001"/>
			<path id="XMLID_520_" style="fill:#E2DEFF;" d="M563.226,183.511l32.004,5.512c0,0,1.956-9.957-8.712-15.113
				C575.85,168.754,566.071,175.332,563.226,183.511z"/>
			<circle id="XMLID_538_" style="fill:#FFFFFF;" cx="577.917" cy="187.356" r="9.535"/>
			<polygon id="XMLID_519_" style="fill:#E2DEFF;" points="581.628,197.557 584.562,203.958 587.229,203.691 584.962,195.957 			"/>
			<polygon id="XMLID_532_" style="fill:#E2DEFF;" points="569.36,194.623 566.026,200.357 568.027,202.491 571.894,196.09 			"/>
			<polygon id="XMLID_533_" style="fill:#E2DEFF;" points="569.093,175.954 567.493,172.221 569.36,170.487 571.894,174.221 			"/>
			<path id="XMLID_534_" style="fill:#E2DEFF;" d="M574.561,169.954c0,0-1.734-5.467-7.601-2.934
				c-5.524,2.385-3.067,8.134-3.067,8.134L574.561,169.954z"/>
			<polygon id="XMLID_537_" style="fill:#E2DEFF;" points="588.837,175.946 592.127,173.563 594.229,175.002 591.145,178.296 			"/>
			<path id="XMLID_536_" style="fill:#E2DEFF;" d="M595.895,179.957c0,0,4.951-2.896,1.187-8.061
				c-3.544-4.863-8.61-1.199-8.61-1.199L595.895,179.957z"/>
			<ellipse id="XMLID_535_" style="fill:#E2DEFF;" cx="577.783" cy="188.245" rx="1.333" ry="1.511"/>
			<polygon id="XMLID_540_" style="fill:#E2DEFF;" points="577.151,188.26 574.001,182.481 572.858,182.395 574.396,180.278 
				576.307,181.236 575.409,182.078 578.228,188.071 			"/>
			<polygon id="XMLID_541_" style="fill:#E2DEFF;" points="577.435,187.032 583.025,190.506 584.062,190.018 583.768,192.618 
				581.633,192.727 581.999,191.551 576.591,187.728 			"/>
			<path id="XMLID_542_" style="fill:#E2DEFF;" d="M656.571,147.684c0,0,7.734-1.067,10.668,5.867
				c2.934,6.934-7.734,13.068-14.935,11.468l-0.533,4c0,0,17.069,1.067,20.002-10.401c2.934-11.468-13.335-14.935-13.335-14.935
				L656.571,147.684z"/>
			<path id="XMLID_543_" style="fill:#E2DEFF;" d="M614.253,146.084c0,0-7.734-1.067-10.668,5.867
				c-2.934,6.934,7.734,13.068,14.935,11.468l0.533,4.001c0,0-17.069,1.067-20.002-10.401
				c-2.934-11.468,13.335-14.935,13.335-14.935L614.253,146.084z"/>
		</g>
		<g id="XMLID_545_">
			<polygon id="XMLID_406_" style="fill:#E2DEFF;" points="205.488,90.159 212.051,238.134 228.758,236.344 220.405,89.562 			"/>
			<polygon id="XMLID_414_" style="fill:#E2DEFF;" points="281.021,159.947 128.499,166.888 130.385,183.59 281.673,174.862 			"/>
			<path id="XMLID_417_" style="fill:#E2DEFF;" d="M111.81,73.452l8.95,187.355l167.665-17.303l0.597-166.472L111.81,73.452z
				 M275.98,231.712L138.419,246.04l-7.343-155.135l145.393,2.964L275.98,231.712z"/>
		</g>
		<g id="XMLID_544_">
			<path id="XMLID_422_" style="fill:#E2DEFF;" d="M353.625,81.886c-19.222,0-34.805,17.274-34.805,38.582
				s15.583,38.582,34.805,38.582c19.222,0,34.805-17.274,34.805-38.582S372.847,81.886,353.625,81.886z M355.945,149.586
				c-13.789,0-24.967-13.187-24.967-29.454c0-16.267,11.178-29.454,24.967-29.454c13.789,0,24.967,13.187,24.967,29.454
				C380.912,136.399,369.734,149.586,355.945,149.586z"/>
			<path id="XMLID_413_" style="fill:#E2DEFF;" d="M360.524,119.963c0,2.129-1.285,3.855-2.871,3.855
				c-1.586,0-2.871-1.726-2.871-3.855c0-2.129,1.285-3.855,2.871-3.855C359.238,116.107,360.524,117.834,360.524,119.963z"/>
			<polygon id="XMLID_419_" style="fill:#E2DEFF;" points="347.563,100.194 356.094,120.045 357.899,117.584 350.352,99.701 
				351.993,98.389 346.907,96.092 345.266,100.358 			"/>
			<polygon id="XMLID_423_" style="fill:#E2DEFF;" points="368.765,126.621 356.673,116.544 356.088,119.54 367.106,127.934 
				365.526,130.14 371.106,130.052 370.47,124.735 			"/>
		</g>
	</g>
	<g id="XMLID_513_">
		<ellipse id="XMLID_401_" style="fill:#00BB8A;" cx="460.93" cy="354.523" rx="180.245" ry="53.138"/>
		<ellipse id="XMLID_403_" style="fill:#16936F;" cx="464.331" cy="343.471" rx="139.87" ry="41.235"/>
	</g>
	<g id="XMLID_512_">
		<g id="XMLID_510_">
			<path id="XMLID_448_" style="fill:#FFAABD;" d="M381.658,261.697c0,0-9.579,8.294-6.128,20.223
				c3.452,11.929-9.85,21.846-8.423,26.492c1.427,4.646-8.168,4.829-8.617,11.49c-0.449,6.661-5.397,5.418-3.842,8.547
				c1.556,3.129-24.534-1.734-29.557,9.651c-5.023,11.385-3.145,27.999,27.877,25.995c31.022-2.004,45.472-15.055,47.021-33.258
				c1.548-18.203,5.155-28.827,8.661-40.341c3.506-11.514,0.111-28.257-6.885-31.673
				C394.769,255.408,384.782,257.438,381.658,261.697z"/>
			<path id="XMLID_446_" style="fill:#EA7D99;" d="M325.483,342.003c0,0,5.983-3.084,6.538,5.613
				c0.555,8.696-3.146,10.917-1.85,13.137s12.767,1.11,17.208-1.11c4.441-2.22,7.401-9.806,3.516-17.763
				c-3.886-7.956-10.732-7.771-13.322-7.771C326.47,334.109,328.813,339.043,325.483,342.003z"/>
			<path id="XMLID_429_" style="fill:#C17A08;" d="M554.795,258.802c0,0,0.74-13.507,2.405-15.727
				c1.665-2.22,14.062-1.295,14.062-1.295s8.696-4.811,14.247-2.22c5.551,2.59,3.145,11.472-6.846,13.692
				c-9.992,2.22-8.141,2.59-8.141,2.59v7.401C570.523,263.243,556.831,263.613,554.795,258.802z"/>
			<path id="XMLID_428_" style="fill:#052644;" d="M484.484,292.662c0,0,6.908,1.85,31.825,5.798
				c14.418,2.284,31.825,5.119,31.825,5.119l6.291-45.887l16.098,1.295c0,0-3.886,52.918-9.807,61.43
				c-5.921,8.511-76.972,7.401-76.972,7.401L484.484,292.662z"/>
			<path id="XMLID_451_" style="fill:#D69365;" d="M318.051,346.413c0,0,8.789-7.74,16.437-7.74c7.648,0,13.075,7.648,13.075,11.102
				c0,3.454-5.181,7.895-15.542,9.375s-16.036-1.727-16.036-1.727L318.051,346.413z"/>
			<path id="XMLID_427_" style="fill:#E69600;" d="M569.968,268.053c0,0,0.74-13.507,2.405-15.727
				c1.665-2.22,14.062-1.295,14.062-1.295s8.696-4.811,14.247-2.22c5.551,2.59,3.145,11.472-6.846,13.692
				c-9.992,2.22-8.141,2.59-8.141,2.59v7.401C585.695,272.494,572.003,272.864,569.968,268.053z"/>
			<path id="XMLID_426_" style="fill:#00336C;" d="M505.577,293.402c0,0,11.102-2.22,23.684,5.181
				c12.582,7.401,28.865,8.511,28.865,8.511l11.472-40.151l16.098,1.295c0,0-3.886,52.918-9.807,61.43
				c-5.921,8.511-76.972,7.401-76.972,7.401L505.577,293.402z"/>
			<path id="XMLID_396_" style="fill:#EA7D99;" d="M376.674,310.055c-0.066,13.824,8.388,22.944,22.697,30.838
				c14.309,7.895,34.352,10.655,34.352,10.655s60.506-3.377,71.238-16.329c7.585-9.154,14.55-33.274-0.247-42.927
				c-11.476-7.486-11.599-1.097-20.828-4.511c-17.667-6.534-39.121-17.693-39.121-17.693s-13.569-3.701-18.996-3.701
				C420.341,266.388,376.921,258.247,376.674,310.055z"/>
			<path id="XMLID_393_" style="fill:#FFAABD;" d="M424.288,264.168c0,0,6.414-0.987,7.154,15.049
				c0.74,16.036-19.243,34.045-29.851,34.292c-10.608,0.247-18.996-11.595-17.763-21.957
				C385.062,281.19,403.565,258.74,424.288,264.168z"/>
			<path id="XMLID_392_" style="fill:#D69365;" d="M395.177,294.019c0,0-0.123,6.353,4.194,6.599
				c4.317,0.247,10.855-14.371,10.855-14.371S395.424,291.922,395.177,294.019z"/>
			<path id="XMLID_188_" style="fill:#FFB98A;" d="M445.443,231.418c-5.362-5.004-10.331-3.962-14.103-1.509
				c0.187-11.368-0.612-21.92-2.118-28.157c-3.454-14.309-74.505-30.838-83.509,25.411c0,0,3.824,19.49,3.33,28.371
				c-0.493,8.881,1.974,29.358,22.204,37.992c20.23,8.635,46.381-5.427,53.782-22.943c0.201-0.475,1.352-2.766,1.542-3.269
				c4.251-0.238,8.91,0.502,14.247-2.775C451.364,258.062,456.545,241.779,445.443,231.418z"/>
			<path id="XMLID_185_" style="fill:#042542;" d="M351.449,234.841c0,0,1.018-4.071,4.996-4.071c3.978,0,5.181,3.701,8.419,4.348
				s4.071-7.401-4.903-9.066C350.986,224.387,350.893,234.471,351.449,234.841z"/>
			<path id="XMLID_186_" style="fill:#052644;" d="M429.716,186.456c0,0-18.503-35.279,6.908-44.654
				c25.411-9.375,48.108,15.049,50.328,31.085c2.22,16.036-16.036,2.96-16.036,2.96s14.802,14.802,10.855,29.605
				c-3.947,14.802-21.957-4.687-21.957-4.687s3.947,14.309-5.674,22.45C444.518,231.356,429.716,186.456,429.716,186.456z"/>
			<path id="XMLID_187_" style="fill:#00336C;" d="M354.717,179.548c0,0-10.855-7.401-22.943-2.467
				c-18.563,7.577-17.516,25.164-12.582,30.591c4.934,5.428,12.335,2.467,12.335,2.467s-18.503,12.089-9.621,25.904
				c8.881,13.815,27.384,15.542,27.384,15.542s-0.493-11.595-1.233-16.529c-0.74-4.934-0.987-14.062,1.974-16.529
				c0,0,2.467,12.582,16.036,16.036c13.569,3.454,10.608-10.362,10.608-10.362s4.194,12.335,19.49,14.556
				c15.296,2.22,16.283-8.635,16.283-8.635s-0.987,13.322,6.908,18.503c0,0-0.247,8.635,1.727,9.868
				c1.974,1.234,5.921-22.203,13.569-23.684c7.648-1.48,13.322,7.401,9.868,19.243c-3.454,11.842-18.503,13.075-18.503,13.075
				s6.661,4.934,20.723-0.493c14.062-5.427,15.542-39.966,1.233-59.209c0,0-2.714-28.371-33.552-37.993
				C388.72,161.415,354.717,179.548,354.717,179.548z"/>
			<path id="XMLID_391_" style="fill:#031726;" d="M413.68,242.211l15.789-2.714c0,0-2.22,4.317-2.714,5.798l-9.622,2.22
				L413.68,242.211z"/>
			<path id="XMLID_447_" style="fill:#3C3734;" d="M355.951,353.105c-0.484-0.612-3.207-5.798-10.362-6.538
				c-7.154-0.74-10.362,2.591-10.978,2.591c-0.617,0-11.102-1.727-11.102-1.727s-1.85-3.454-7.278-3.454
				c-5.428,0-9.19,7.771-9.19,12.335c0,4.564,7.34,19.366,13.507,22.203s5.551-8.881,3.824-13.322l12.952,2.344
				c0,0,6.168,16.406,14.309,17.886C359.775,386.904,361.995,360.753,355.951,353.105z"/>
			<path id="XMLID_194_" style="fill:#042542;" d="M416.147,242.088c-6.908-4.194-20.353-4.441-28.618-2.467
				c-8.265,1.974-6.908,10.238-6.908,10.238c-5.276-1.347-8.703-0.653-9.279-0.517c0.061-0.178,0.081-0.858-0.219-3.184
				c-0.493-3.824-3.947-7.278-14.309-7.648s-14.679,4.194-14.679,4.194c-4.687,3.33,2.961,6.167,2.961,6.167
				c-0.74,2.344,0.493,14.556,3.577,16.899c3.084,2.344,13.322,2.344,17.023-0.37c3.701-2.714,5.304-10.732,5.304-10.732
				c2.714-1.11,9.128,0.123,9.128,0.123s1.604,8.758,4.317,10.978c2.714,2.22,16.159,6.538,25.164,0.493
				c9.005-6.044,6.168-15.666,6.168-15.666S423.055,246.282,416.147,242.088z M364.493,261.392
				c-2.22,2.313-11.407,2.417-13.23,0.925c-3.053-2.498-4.256-9.344-3.33-14.895c0,0-0.463-3.608,3.515-4.163
				c3.978-0.555,11.657-0.648,14.34,2.035C368.471,247.978,366.714,259.08,364.493,261.392z M409.317,259.554
				c-2.388,4.05-16.36,8.067-22.75,2.09c-2.794-2.613-2.388-10.581-0.754-15.284c1.634-4.703,15.208-4.18,21.744-2.09
				C414.093,246.361,411.705,255.505,409.317,259.554z"/>
			<path id="XMLID_190_" style="fill:#042542;" d="M396.75,251.547c0,3.163-1.435,5.728-3.205,5.728
				c-1.77,0-3.205-2.565-3.205-5.728s1.435-5.728,3.205-5.728C395.315,245.819,396.75,248.384,396.75,251.547z"/>
			<path id="XMLID_191_" style="fill:#042542;" d="M364.925,251.547c0,3.163-1.435,5.728-3.205,5.728
				c-1.77,0-3.205-2.565-3.205-5.728s1.435-5.728,3.205-5.728C363.49,245.819,364.925,248.384,364.925,251.547z"/>
			<path id="XMLID_189_" style="fill:#DD8168;" d="M370.82,254.176c0,0-5.06,7.112-2.872,11.762
				c2.188,4.65,11.352,3.282,12.172,2.599c0.82-0.684-5.334-4.787-8.616-5.197l0.821-9.027L370.82,254.176z"/>
			<path id="XMLID_394_" style="fill:#DD8168;" d="M371.987,275.825c0,0,2.652,2.282,10.362,2.159
				c7.71-0.123,10.362-3.516,10.362-3.516s-1.727-2.529-0.802-2.59c0.925-0.062,3.762,1.172,4.626,4.256
				c0.863,3.084-2.837,0.74-2.837,0.74s-1.048,2.652-9.868,3.269c-8.82,0.617-11.41-2.405-11.41-2.405L371.987,275.825z"/>
			<path id="XMLID_395_" style="fill:#DD8168;" d="M409.239,268.115c0,0,5.181-4.564,8.511-3.331
				C421.081,266.018,405.662,275.393,409.239,268.115z"/>
			<path id="XMLID_397_" style="fill:#DD8168;" d="M351.653,267.691c0,0,6.9,0.253,8.468,3.44
				C361.689,274.317,344.05,270.511,351.653,267.691z"/>
			<path id="XMLID_398_" style="fill:#DD8168;" d="M442.668,245.542c0,0-0.74-5.921-4.687-6.291
				c-3.947-0.37-6.291,7.031-5.181,10.115c1.11,3.084,0.74,5.304-1.974,6.168c-2.714,0.863-4.441,4.317-1.48,5.057
				c2.96,0.74,5.674-0.247,6.168-2.467c0.493-2.22-0.987-2.344-0.123-3.947c0.863-1.604-0.617-5.057-0.123-6.414
				c0.493-1.357,1.233,1.727,3.207,2.714c1.974,0.987-1.357-5.921-0.123-6.538c1.234-0.617,2.097,6.538,3.33,7.031
				C442.914,251.463,443.408,246.898,442.668,245.542z"/>
			<path id="XMLID_399_" style="fill:#FFAABD;" d="M438.277,282.79c0,0-9.579,8.294-6.127,20.223s-9.85,21.846-8.424,26.492
				c1.426,4.646-8.168,4.829-8.617,11.491c-0.449,6.661-5.397,5.418-3.842,8.547c1.556,3.129-24.534-1.734-29.557,9.651
				c-5.023,11.385-3.145,27.999,27.877,25.995c31.022-2.004,45.472-15.055,47.021-33.258c1.548-18.203,5.155-28.827,8.661-40.341
				s0.111-28.257-6.885-31.673C451.388,276.501,441.401,278.531,438.277,282.79z"/>
			<path id="XMLID_400_" style="fill:#FFB98A;" d="M393.059,357.467c0,0,9.026-1.278,12.48,8.344
				c3.454,9.622-2.22,15.049-13.075,15.296c-10.855,0.247-30.345-1.48-30.345-1.48s-7.155,3.454-12.335,1.974
				c-5.181-1.48-10.485-1.974-10.608-4.441c-0.123-2.467,1.357-3.331,1.357-3.331s-3.331-2.467-2.96-4.317
				c0.37-1.85,2.344-3.577,2.344-3.577s-3.33-2.96-1.48-4.811c1.85-1.85,3.084-2.097,3.084-2.097s-0.493-3.207,0.493-4.317
				c0.987-1.11,5.427-1.11,8.265-0.123c2.837,0.987,5.798,3.084,5.798,3.084l1.85,1.604c0,0-1.603-2.714-1.727-4.317
				c0,0-3.454-1.11-3.084-4.317c0.37-3.207,5.921,1.11,8.141,2.837c2.22,1.727,3.947,8.758,3.947,8.758
				S390.447,356.894,393.059,357.467z"/>
			<path id="XMLID_430_" style="fill:#F6FFD3;" d="M410.288,300.803c0,0-3.331,12.582-3.886,18.318l2.22-0.185l3.886-18.503
				L410.288,300.803z"/>
			<polygon id="XMLID_432_" style="fill:#F6FFD3;" points="406.587,322.174 405.014,325.412 406.957,325.875 409.64,325.782 
				408.16,321.342 			"/>
			<path id="XMLID_425_" style="fill:#FF4146;" d="M407.697,316.346c0,0-1.85-3.516-4.811-0.463
				c-2.96,3.053,4.626,7.956,4.626,7.956s5.181-5.273,4.071-7.586C410.473,313.941,407.697,316.346,407.697,316.346z"/>
			<path id="XMLID_444_" style="fill:#F6FFD3;" d="M390.704,300.509c0,0-0.462,10.87,0.114,15.653l1.78-0.549l-0.147-15.804
				L390.704,300.509z"/>
			<polygon id="XMLID_443_" style="fill:#F6FFD3;" points="391.517,318.622 390.813,321.548 392.483,321.577 394.656,321.02 
				392.651,317.66 			"/>
			<path id="XMLID_433_" style="fill:#FF4146;" d="M391.377,313.664c0,0-2.142-2.538-4.011,0.485
				c-1.869,3.024,5.204,5.666,5.204,5.666s3.284-5.235,1.962-6.924C393.212,311.202,391.377,313.664,391.377,313.664z"/>
			<path id="XMLID_431_" style="fill:#EA7D99;" d="M383.459,357.422c0,0,4.626,2.59,5.181,11.287
				c0.555,8.696-3.146,10.917-1.85,13.137c1.295,2.22,12.767,1.11,17.208-1.11c4.441-2.22,7.401-9.806,3.516-17.763
				c-3.885-7.956-10.732-7.771-13.322-7.771C391.6,355.202,386.789,354.462,383.459,357.422z"/>
			<path id="XMLID_445_" style="fill:#FFB98A;" d="M305.099,348.078c0,0-4.903,1.203-5.181,4.903
				c-0.278,3.701,2.775,5.088,2.775,5.088s-1.018,2.035,0.37,3.793c1.388,1.758,3.053,1.943,3.053,1.943s-0.925,2.22,1.11,3.331
				c2.035,1.11,2.405,1.018,2.405,1.018s-0.092,1.85,1.665,2.683c1.758,0.833,4.441,1.295,6.476-0.185
				c2.035-1.48,1.018-3.053-0.278-3.515c-1.295-0.463-4.163-0.555-4.163-0.555s4.163-0.74,4.441-3.053
				c0.277-2.313-6.384-1.48-6.384-1.48s4.348-0.648,5.181-3.516c0.833-2.868-6.939-3.701-6.939-3.701s5.921-0.093,7.031-2.22
				C317.773,350.484,308.984,347.986,305.099,348.078z"/>
			<path id="XMLID_402_" style="fill:#EA8CA5;" d="M409.918,351.131c0,0,9.83,0.488,15.727,10.732L409.918,351.131z"/>
			<path id="XMLID_404_" style="fill:#EA8CA5;" d="M415.839,345.766l16.098,6.291C431.936,352.056,424.905,340.77,415.839,345.766z"
				/>
			<path id="XMLID_405_" style="fill:#042542;" d="M394.826,247.538c0,0,3.089-2.522,4.676-2.126c2.267,0.567-3.897,4.18-3.897,4.18
				L394.826,247.538z"/>
			<path id="XMLID_407_" style="fill:#042542;" d="M359.899,247.538c0,0-3.089-2.522-4.676-2.126
				c-2.267,0.567,3.897,4.18,3.897,4.18L359.899,247.538z"/>
			<g id="XMLID_504_">
				<path id="XMLID_506_" style="fill:#23201C;" d="M262.894,414.177c-14.684-2.897-25.866-20.114-26.394-20.939l2.654-1.7
					c0.136,0.213,13.809,21.241,29.41,19.831c9.68-0.872,13.913-14.298,18.394-28.513c2.601-8.25,5.29-16.78,9.241-23.269
					c3.608-5.926,8.13-9.55,13.439-10.773c7.867-1.81,14.497,2.373,14.776,2.552l-1.701,2.653
					c-0.058-0.036-5.844-3.652-12.402-2.125c-4.436,1.033-8.279,4.172-11.421,9.332c-3.752,6.162-6.383,14.507-8.927,22.578
					c-4.806,15.244-9.346,29.644-21.117,30.704C266.814,414.691,264.822,414.557,262.894,414.177z"/>
			</g>
			<g id="XMLID_509_">
				<path id="XMLID_474_" style="fill:#3C3734;" d="M464.729,386.148c0,0-1.788,1.41-1.198,2.659
					c0.59,1.249,1.966,0.822,1.128,2.933c-0.839,2.112-1.335,3.822-0.233,5.721c1.103,1.899,1.676,0.787,1.153,3.968
					c-0.523,3.181-1.566,4.532-0.045,6.627c1.521,2.096,2.821,3.575,2.701,4.593c-0.12,1.018,2.589,4.285,3.77,4.277
					C473.184,416.918,470.995,391.751,464.729,386.148z"/>
				<path id="XMLID_478_" style="fill:#007DB5;" d="M466.543,384.937c0,0,3.592-2.131,10.376-1.33
					c6.784,0.801,11.743,0.403,18.06,0.166c6.316-0.237,18.835,0.258,20.203,1.991c1.367,1.734,5.284,18.506,4.231,27.422
					c-1.052,8.915-24.983,6.877-31.904,7.24c-6.921,0.362-13.669-2.399-13.669-2.399S464.18,393.305,466.543,384.937z"/>
				<path id="XMLID_476_" style="fill:#FFBB61;" d="M463.031,384.719c0,0,2.678,2.281,3.248,4.117
					c0.569,1.836-1.53,6.304,0.419,8.107c1.949,1.802,1.321,5.462,0.636,7.936c-0.685,2.474,3.122,6.853,3.634,7.503
					c0.513,0.65-1.427,3.762-0.595,5.039c0.832,1.277,3.568,1.404,3.568,1.404s1.666-4.127-0.944-6.99
					c-2.61-2.863-2.951-6.637-2.618-11.117c0.332-4.481-1.88-2.384-1.354-6.841c0.526-4.458,1.29-5.94,0.014-8.448
					C467.763,382.92,463.031,384.719,463.031,384.719z"/>
				<path id="XMLID_488_" style="fill:#4FC1E8;" d="M478.527,413.274c0,0,7.582,0.698,12.815,1.316
					c5.233,0.617,19.645-1.612,21.048-1.84c1.402-0.228,2.61,2.863-7.116,3.68C495.548,417.248,485.845,417.871,478.527,413.274z"/>
				<path id="XMLID_495_" style="fill:#4FC1E8;" d="M481.087,394.907c0,0-0.084-5.119,8.672-4.381
					c8.756,0.739,12.823,9.57,12.96,10.078c0.137,0.507,0.927,4.629,0.026,5.604s-1.819,2.93-4.556,2.803
					c-2.736-0.126-9.731,0.031-12.575-1.681c-2.844-1.711-5.641-8.821-5.001-12.577"/>
				<path id="XMLID_501_" style="fill:#D8FC00;" d="M478.325,387.507c0,0,7.388,0.675,10.191,3.561
					c2.804,2.886-3.051,3.374-0.389,4.965c2.662,1.591,6.915,0.521,8.196,3.817c1.282,3.296-4.487,2.222-2.282,4.349
					c2.205,2.127,8.367,4.033,8.418,6.103c0.051,2.069-6.522,0.311-11.007-2.478c-4.485-2.789-4.382-5.332-2.232-6.061
					c2.15-0.729,1.563-1.584-3.22-3.524c-4.782-1.94-2.21-4.584-1.537-5.291c0.673-0.707-6.937-1.998-7.016-2.99
					C477.367,388.966,476.216,387.061,478.325,387.507z"/>
				<path id="XMLID_411_" style="fill:#FEFFAA;" d="M443.897,392.827c0,0,2.875-4.377,8.398-3.725
					c5.524,0.652,7.011,3.038,2.76,5.337C450.805,396.738,442.527,396.94,443.897,392.827z"/>
				<path id="XMLID_409_" style="fill:#FEFFAA;" d="M448.246,402.184c0,0,7.593,0.601,8.592,5.878
					C457.836,413.338,439.728,404.421,448.246,402.184z"/>
				<path id="XMLID_508_" style="fill:#FEFFAA;" d="M436.071,397.947c0,0,4.413-2.427,6.593,0.336
					C444.843,401.045,431.461,400.793,436.071,397.947z"/>
			</g>
		</g>
		<path id="XMLID_450_" style="fill:#FFB98A;" d="M305.099,348.078c0,0,1.85-3.053,4.903-4.071c3.053-1.018,6.568,0.555,8.049,2.406
			c1.48,1.85-6.569,1.48-6.569,1.48l-2.683,1.665L305.099,348.078z"/>
	</g>
	<g id="XMLID_183_">
		<path id="XMLID_467_" style="fill:#D8FC00;" d="M572.877,353.818c-0.417,3.741-3.741,7.975-9.038,11.844
			c-12.728,9.31-36.848,16.494-59.268,9.692c-31.738-9.633-26.357-40.81-26.357-40.81c0.043-0.102,0.085-0.204,0.136-0.298
			c8.443-19.776,43.624-14.411,64.769-9.905C564.375,328.872,574.289,341.064,572.877,353.818z"/>
		<path id="XMLID_465_" style="fill:#C4D613;" d="M563.84,365.661c-12.728,9.31-36.848,16.494-59.268,9.692
			c-31.738-9.633-26.357-40.81-26.357-40.81c0.043-0.102,0.085-0.204,0.136-0.298c0.799-0.085,1.003,11.07,14.037,19.853
			c13.034,8.783,28.338,15.304,42.23,13.323c13.884-1.99,30.888-15.593,34.859-14.743
			C571.483,353.112,569.783,359.344,563.84,365.661z"/>
		<path id="XMLID_408_" style="fill:#C4D613;" d="M522.995,349.706c0,0,1.134-10.911,4.109-11.761
			c2.976-0.85-0.142,13.32-1.984,15.446C523.279,355.515,522.995,349.706,522.995,349.706z"/>
		<path id="XMLID_410_" style="fill:#C4D613;" d="M522.429,337.094c0,0-4.535,4.251-3.401,7.51c1.134,3.259,4.251-6.518,4.96-7.794
			S522.429,337.094,522.429,337.094z"/>
		<path id="XMLID_449_" style="fill:#C4D613;" d="M523.562,331.993c0,0-3.401-6.093-12.612-6.235
			c-9.211-0.142-12.186,3.117-10.769,3.968C501.598,330.576,515.06,326.466,523.562,331.993z"/>
		<path id="XMLID_184_" style="fill:#C4D613;" d="M522.004,333.126c0,0-9.636-1.842-10.486,1.7
			C510.667,338.369,522.004,333.126,522.004,333.126z"/>
		<path id="XMLID_462_" style="fill:#C4D613;" d="M525.121,333.693c0,0,1.134,2.551,4.393,2.551c3.259,0,4.109-1.559,4.109-1.559
			S530.364,330.576,525.121,333.693z"/>
		<path id="XMLID_461_" style="fill:#C4D613;" d="M527.105,330.151c0,0-4.535-5.668-2.409-6.235
			C526.821,323.349,527.105,330.151,527.105,330.151z"/>
		<path id="XMLID_463_" style="fill:#C4D613;" d="M530.222,331.426c0,0,2.834-5.526,8.502-5.243S531.073,330.434,530.222,331.426z"
			/>
		<path id="XMLID_464_" style="fill:#C4D613;" d="M535.89,334.26c0,0,7.51-4.109,13.462-0.567
			C555.304,337.236,535.89,334.26,535.89,334.26z"/>
		<path id="XMLID_466_" style="fill:#C4D613;" d="M535.749,336.244c0,0,8.927,0,10.486,3.117
			C547.793,342.479,535.749,336.244,535.749,336.244z"/>
		<path id="XMLID_468_" style="fill:#C4D613;" d="M533.34,337.519c0,0,6.477,2.477,7.386,9.165
			C541.634,353.371,533.34,337.519,533.34,337.519z"/>
		<path id="XMLID_470_" style="fill:#EDF4AE;" d="M482.61,334.968c0,0,3.188,13.816,26.144,22.105
			c22.956,8.29,45.911-1.488,50.375-4.039c4.464-2.551,10.203-6.164,11.053-5.101c0.85,1.063-13.816,12.328-25.932,13.816
			c-12.116,1.488-18.067,4.251-28.482,0.638c-10.415-3.613-19.767-8.077-26.569-13.816
			C482.398,342.833,480.697,336.456,482.61,334.968z"/>
	</g>
	<g id="XMLID_503_">
		<path id="XMLID_516_" style="fill:#FF4146;" d="M329.156,326.046c-3.862,6.52-8.251,5.625-8.251,5.625l-0.446,2.718l-7.11-0.099
			l-8.035-0.118l0.109-1.727c0,0-9.682-0.542-10.613-10.815c-0.415-4.57,0.987-8.011,2.83-10.905
			c2.296-3.615,5.276-6.378,6.263-9.413c1.229-3.79-2.753-4.995-5.039-8.079c-1.013-1.353-1.693-3.077-1.448-5.549
			c0.801-8.069,6.124-7.544,7.562-9.926c1.237-2.051,0.919-4.874,0.811-5.618c-0.022-0.122-0.032-0.187-0.032-0.187l0.934-0.077
			l1.563-0.127l4.578-0.379c0,0-0.018,4.359,0.949,5.914c0.966,1.555,11.244,2.718,11.123,10.899
			c-0.023,1.413-0.318,2.663-0.759,3.777c-2.116,5.362-7.575,7.753-2.204,11.091c1.957,1.215,3.74,3.196,5.169,5.545
			C330.428,314.042,331.851,321.491,329.156,326.046z"/>
		<path id="XMLID_511_" style="fill:#D8FC00;" d="M307.396,310.303c0.308-0.899,0.57-1.854,0.739-2.887
			c0.882-5.376-2.027-10.439-3.797-14.456l19.804-1c-2.116,5.362-7.575,7.753-2.204,11.091c1.957,1.215,3.74,3.196,5.169,5.545
			l0.074,0.78C327.181,309.377,316.094,309.909,307.396,310.303z"/>
		<path id="XMLID_517_" style="fill:#C4D613;" d="M308.135,307.416c-0.17,1.033-0.431,1.988-0.739,2.887
			c-4.557,0.208-8.459,0.384-9.757,0.422c2.296-3.615,5.276-6.378,6.263-9.413c1.229-3.79-2.753-4.995-5.039-8.079l5.475-0.274
			C306.108,296.977,309.018,302.04,308.135,307.416z"/>
		<path id="XMLID_514_" style="fill:#AA3947;" d="M304.339,292.96l-5.475,0.274c-1.013-1.353-1.693-3.077-1.448-5.549
			c0.801-8.069,6.124-7.544,7.562-9.926c1.237-2.051,0.919-4.874,0.811-5.618c0.324-0.1,0.631-0.19,0.902-0.264
			c0.836-0.247,1.414-0.41,1.414-0.41s0.053,0.099,0.149,0.283c0.643,1.271,2.999,6.474-0.468,8.04
			c-3.958,1.793-5.449,5.561-4.59,9.89C303.389,290.668,303.816,291.764,304.339,292.96z"/>
		<path id="XMLID_515_" style="fill:#AA3947;" d="M313.348,334.29l-8.035-0.118l0.109-1.727c0,0-9.682-0.542-10.613-10.815
			c-0.415-4.57,0.987-8.011,2.83-10.905c1.297-0.038,5.2-0.214,9.757-0.422c-1.777,5.173-5.179,8.377-2.055,12.009
			C308.499,325.992,312.419,332.128,313.348,334.29z"/>
		<polygon id="XMLID_500_" style="fill:#FFB98A;" points="304.216,267.514 304.427,272.609 314.504,272.867 314.405,267.093 		"/>
		<path id="XMLID_502_" style="fill:#FFFFFF;" d="M320.187,281.826c0,0-11.021-0.181-10.622,0.932
			C309.965,283.871,325.724,284.945,320.187,281.826z"/>
	</g>
	<g id="XMLID_518_">
		<g id="XMLID_473_">
			<polygon id="XMLID_469_" style="fill:#FFBB61;" points="48.576,372.803 214.316,415.314 275.295,390.374 116.331,359.766 			"/>
			<polygon id="XMLID_471_" style="fill:#FCA400;" points="48.576,372.803 51.182,403.41 215.879,455.557 214.316,415.314 			"/>
			<polygon id="XMLID_472_" style="fill:#D3860B;" points="215.879,455.557 214.316,415.314 275.295,390.374 276.859,423.249 			"/>
		</g>
		<g id="XMLID_412_">
			<path id="XMLID_498_" style="fill:#3C3734;" d="M195.183,374.76c-5.657,2.454-21.075,8.067-41.954,7.221
				c-22.204-0.901-37.09-8.339-41.412-10.771c8.382-4.669,27.025-12.801,50.272-9.099
				C177.192,364.51,188.788,370.645,195.183,374.76z"/>
			<polygon id="XMLID_486_" style="fill:#504D48;" points="167.756,341.21 166.399,366.997 162.327,366.997 161.242,343.109 			"/>
			<polygon id="XMLID_475_" style="fill:#3C3734;" points="55.378,192.729 70.579,332.795 246.475,354.51 247.561,197.072 			"/>
			<polygon id="XMLID_477_" style="fill:#504D48;" points="246.475,354.51 254.799,349.805 255.523,197.796 247.561,197.072 			"/>
			<polygon id="XMLID_479_" style="fill:#23201C;" points="105.867,314.879 183.5,324.108 178.614,269.277 97.724,261.133 
				105.324,258.962 186.214,264.391 192.729,329.537 105.867,319.765 			"/>
			<path id="XMLID_481_" style="fill:#898683;" d="M239.741,210.102c1.031,3.759-0.789,7.535-4.066,8.434
				c-3.277,0.899-6.77-1.419-7.801-5.178c-1.031-3.759,0.789-7.535,4.066-8.434C235.217,204.025,238.71,206.344,239.741,210.102z"/>
			<path id="XMLID_482_" style="fill:#898683;" d="M68.217,201.266c1.031,3.759-0.026,7.326-2.361,7.966
				c-2.336,0.641-5.065-1.887-6.097-5.646c-1.031-3.759,0.026-7.326,2.361-7.966C64.457,194.979,67.186,197.507,68.217,201.266z"/>
			<polygon id="XMLID_483_" style="fill:#23201C;" points="168.842,317.051 166.942,295.064 170.199,295.607 171.285,318.137 			"/>
			<polygon id="XMLID_484_" style="fill:#23201C;" points="162.327,316.508 165.585,316.779 163.956,295.335 161.242,295.335 			"/>
			<polygon id="XMLID_485_" style="fill:#23201C;" points="156.084,315.694 159.07,316.237 158.527,295.878 155.541,295.878 			"/>
			<polygon id="XMLID_487_" style="fill:#23201C;" points="136.269,339.852 140.612,363.739 162.327,366.997 161.242,343.109 			"/>
			<path id="XMLID_490_" style="fill:#23201C;" d="M111.817,371.21l-0.769,4.597c0,0,19.879,12.895,48.355,10.745
				c28.476-2.149,37.072-7.791,37.072-7.791l-1.292-4.002C195.183,374.76,155.836,386.76,111.817,371.21z"/>
		</g>
	</g>
</g>
</svg>
